# Blender 4.5.3 LTS
# www.blender.org
mtllib ChapanBox.mtl
o Box-GEO
v -1.000000 -1.000000 -1.000000
v 1.000000 -1.000000 1.000000
v 1.000000 1.000000 1.000000
v 1.000000 1.000000 -1.000000
v -1.000000 -1.000000 1.000000
v -1.000000 1.000000 1.000000
v -1.000000 1.000000 -1.000000
v 1.000000 -1.000000 -1.000000
vn -0.0000 1.0000 -0.0000
vn -0.0000 -1.0000 -0.0000
vn 1.0000 -0.0000 -0.0000
vn -1.0000 -0.0000 -0.0000
vn -0.0000 -0.0000 -1.0000
vn -0.0000 -0.0000 1.0000
vt 0.000000 0.000000
vt 1.000000 0.000000
vt 1.000000 1.000000
vt 0.000000 1.000000
s 0
usemtl Material
f 6/1/1 3/2/1 4/3/1 7/4/1
f 5/1/2 1/4/2 8/3/2 2/2/2
f 2/1/3 8/4/3 4/3/3 3/2/3
f 5/1/4 6/2/4 7/3/4 1/4/4
f 7/1/5 4/2/5 8/3/5 1/4/5
f 6/1/6 5/4/6 2/3/6 3/2/6
