{
	"asset":{
		"generator":"Khronos glTF Blender I/O v4.4.56",
		"version":"2.0"
	},
	"scene":0,
	"scenes":[
		{
			"name":"Scene",
			"nodes":[
				0
			]
		}
	],
	"nodes":[
		{
			"mesh":0,
			"name":"Wall"
		}
	],
	"materials":[
		{
			"doubleSided":true,
			"name":"Tower_Material",
			"pbrMetallicRoughness":{
				"baseColorTexture":{
					"index":0
				},
				"metallicFactor":0,
				"roughnessFactor":0.5
			}
		}
	],
	"meshes":[
		{
			"name":"Cube",
			"primitives":[
				{
					"attributes":{
						"POSITION":0,
						"NORMAL":1,
						"TEXCOORD_0":2
					},
					"indices":3,
					"material":0
				}
			]
		}
	],
	"textures":[
		{
			"sampler":0,
			"source":0
		}
	],
	"images":[
		{
			"mimeType":"image/png",
			"name":"Tower_Texture",
			"uri":"Tower_Texture.png"
		}
	],
	"accessors":[
		{
			"bufferView":0,
			"componentType":5126,
			"count":3885,
			"max":[
				2.980184316635132,
				11.606658935546875,
				2.0400002002716064
			],
			"min":[
				-2.23087477684021,
				0,
				-2.0706450939178467
			],
			"type":"VEC3"
		},
		{
			"bufferView":1,
			"componentType":5126,
			"count":3885,
			"type":"VEC3"
		},
		{
			"bufferView":2,
			"componentType":5126,
			"count":3885,
			"type":"VEC2"
		},
		{
			"bufferView":3,
			"componentType":5123,
			"count":12090,
			"type":"SCALAR"
		}
	],
	"bufferViews":[
		{
			"buffer":0,
			"byteLength":46620,
			"byteOffset":0,
			"target":34962
		},
		{
			"buffer":0,
			"byteLength":46620,
			"byteOffset":46620,
			"target":34962
		},
		{
			"buffer":0,
			"byteLength":31080,
			"byteOffset":93240,
			"target":34962
		},
		{
			"buffer":0,
			"byteLength":24180,
			"byteOffset":124320,
			"target":34963
		}
	],
	"samplers":[
		{
			"magFilter":9729,
			"minFilter":9987
		}
	],
	"buffers":[
		{
			"byteLength":148500,
			"uri":"Tower.bin"
		}
	]
}
